<svg width="215" height="62" viewBox="0 0 215 62" fill="none" xmlns="http://www.w3.org/2000/svg">
<path d="M35.891 26.7734V32.2578H18.0785V26.7734H35.891ZM20.1644 12.875V47H13.1332V12.875H20.1644ZM40.9066 12.875V47H33.8988V12.875H40.9066ZM69.9222 41.5156V47H51.7582V41.5156H69.9222ZM54.055 12.875V47H47.0238V12.875H54.055ZM67.555 26.7734V32.1172H51.7582V26.7734H67.555ZM69.8988 12.875V18.3828H51.7582V12.875H69.8988ZM74.0238 12.875H86.7503C89.3597 12.875 91.6019 13.2656 93.4769 14.0469C95.3675 14.8281 96.8207 15.9844 97.8363 17.5156C98.8519 19.0469 99.3597 20.9297 99.3597 23.1641C99.3597 24.9922 99.0472 26.5625 98.4222 27.875C97.8128 29.1719 96.9457 30.2578 95.8207 31.1328C94.7113 31.9922 93.4066 32.6797 91.9066 33.1953L89.68 34.3672H78.6175L78.5707 28.8828H86.7972C88.0316 28.8828 89.055 28.6641 89.8675 28.2266C90.68 27.7891 91.2894 27.1797 91.6957 26.3984C92.1175 25.6172 92.3285 24.7109 92.3285 23.6797C92.3285 22.5859 92.1253 21.6406 91.7191 20.8438C91.3128 20.0469 90.6957 19.4375 89.8675 19.0156C89.0394 18.5938 88.0003 18.3828 86.7503 18.3828H81.055V47H74.0238V12.875ZM93.1019 47L85.3207 31.7891L92.7503 31.7422L100.625 46.6719V47H93.1019ZM118.649 18.7109L109.368 47H101.891L114.571 12.875H119.328L118.649 18.7109ZM126.36 47L117.055 18.7109L116.305 12.875H121.11L133.86 47H126.36ZM125.938 34.2969V39.8047H107.914V34.2969H125.938ZM144.078 41.5859L150.875 12.875H154.672L155.539 17.6562L148.297 47H144.219L144.078 41.5859ZM140.586 12.875L146.211 41.5859L145.743 47H141.196L133.625 12.875H140.586ZM161.516 41.4688L167.071 12.875H174.032L166.485 47H161.938L161.516 41.4688ZM156.805 12.875L163.649 41.7031L163.461 47H159.383L152.094 17.6328L153.032 12.875H156.805ZM195.618 38.0703C195.618 37.4609 195.524 36.9141 195.336 36.4297C195.164 35.9297 194.836 35.4766 194.352 35.0703C193.868 34.6484 193.188 34.2344 192.313 33.8281C191.438 33.4219 190.305 33 188.914 32.5625C187.368 32.0625 185.899 31.5 184.508 30.875C183.133 30.25 181.914 29.5234 180.852 28.6953C179.805 27.8516 178.977 26.875 178.368 25.7656C177.774 24.6562 177.477 23.3672 177.477 21.8984C177.477 20.4766 177.789 19.1875 178.414 18.0312C179.039 16.8594 179.914 15.8594 181.039 15.0312C182.164 14.1875 183.493 13.5391 185.024 13.0859C186.571 12.6328 188.266 12.4062 190.11 12.4062C192.625 12.4062 194.821 12.8594 196.696 13.7656C198.571 14.6719 200.024 15.9141 201.055 17.4922C202.102 19.0703 202.625 20.875 202.625 22.9062H195.641C195.641 21.9062 195.43 21.0312 195.008 20.2812C194.602 19.5156 193.977 18.9141 193.133 18.4766C192.305 18.0391 191.258 17.8203 189.993 17.8203C188.774 17.8203 187.758 18.0078 186.946 18.3828C186.133 18.7422 185.524 19.2344 185.118 19.8594C184.711 20.4688 184.508 21.1562 184.508 21.9219C184.508 22.5 184.649 23.0234 184.93 23.4922C185.227 23.9609 185.664 24.3984 186.243 24.8047C186.821 25.2109 187.532 25.5938 188.375 25.9531C189.219 26.3125 190.196 26.6641 191.305 27.0078C193.164 27.5703 194.797 28.2031 196.203 28.9062C197.625 29.6094 198.813 30.3984 199.766 31.2734C200.719 32.1484 201.438 33.1406 201.922 34.25C202.407 35.3594 202.649 36.6172 202.649 38.0234C202.649 39.5078 202.36 40.8359 201.782 42.0078C201.203 43.1797 200.368 44.1719 199.274 44.9844C198.18 45.7969 196.875 46.4141 195.36 46.8359C193.844 47.2578 192.149 47.4688 190.274 47.4688C188.586 47.4688 186.922 47.25 185.282 46.8125C183.641 46.3594 182.149 45.6797 180.805 44.7734C179.477 43.8672 178.414 42.7109 177.618 41.3047C176.821 39.8984 176.422 38.2344 176.422 36.3125H183.477C183.477 37.375 183.641 38.2734 183.969 39.0078C184.297 39.7422 184.758 40.3359 185.352 40.7891C185.961 41.2422 186.68 41.5703 187.508 41.7734C188.352 41.9766 189.274 42.0781 190.274 42.0781C191.493 42.0781 192.493 41.9062 193.274 41.5625C194.071 41.2188 194.657 40.7422 195.032 40.1328C195.422 39.5234 195.618 38.8359 195.618 38.0703Z" fill="black"/>
</svg>
